<svg width="26" height="23" viewBox="0 0 26 23" fill="none" xmlns="http://www.w3.org/2000/svg">
<g id="Frame" clip-path="url(#clip0_6_40)">
<path id="Vector" d="M20.1172 9.70199H21.1591C21.4354 9.70199 21.7004 9.80134 21.8958 9.97818C22.0912 10.155 22.2009 10.3949 22.2009 10.645V20.075C22.2009 20.3251 22.0912 20.5649 21.8958 20.7418C21.7004 20.9186 21.4354 21.018 21.1591 21.018H4.48963C4.21331 21.018 3.94832 20.9186 3.75293 20.7418C3.55755 20.5649 3.44778 20.3251 3.44778 20.075L3.44778 10.645C3.44778 10.3949 3.55755 10.155 3.75293 9.97818C3.94832 9.80134 4.21331 9.70199 4.48963 9.70199H5.53147V8.75899C5.53147 7.89213 5.7201 7.03376 6.0866 6.23289C6.45311 5.43202 6.9903 4.70433 7.6675 4.09137C8.34471 3.47841 9.14867 2.99219 10.0335 2.66046C10.9183 2.32872 11.8666 2.15798 12.8244 2.15798C13.7821 2.15798 14.7304 2.32872 15.6152 2.66046C16.5 2.99219 17.304 3.47841 17.9812 4.09137C18.6584 4.70433 19.1956 5.43202 19.5621 6.23289C19.9286 7.03376 20.1172 7.89213 20.1172 8.75899V9.70199ZM5.53147 11.588L5.53147 19.132H20.1172V11.588H5.53147ZM11.7825 13.474H13.8662L13.8662 17.246H11.7825L11.7825 13.474ZM18.0336 9.70199V8.75899C18.0336 7.50849 17.4847 6.30921 16.5078 5.42498C15.5309 4.54074 14.2059 4.04399 12.8244 4.04399C11.4428 4.04399 10.1178 4.54074 9.14089 5.42498C8.16397 6.30921 7.61515 7.50849 7.61515 8.75899L7.61515 9.70199H18.0336Z" fill="white"/>
</g>
<defs>
<clipPath id="clip0_6_40">
<rect width="25.0042" height="22.632" fill="white" transform="translate(0.322418 0.272011)"/>
</clipPath>
</defs>
</svg>
