<svg width="26" height="24" viewBox="0 0 26 24" fill="none" xmlns="http://www.w3.org/2000/svg">
<g id="Frame" clip-path="url(#clip0_6_32)">
<path id="Vector" d="M3.44747 3.48507L22.2006 3.48507C22.4769 3.48507 22.7419 3.58442 22.9373 3.76127C23.1327 3.93811 23.2424 4.17797 23.2424 4.42807V19.5161C23.2424 19.7662 23.1327 20.006 22.9373 20.1829C22.7419 20.3597 22.4769 20.4591 22.2006 20.4591H3.44747C3.17115 20.4591 2.90616 20.3597 2.71077 20.1829C2.51539 20.006 2.40562 19.7662 2.40562 19.5161L2.40562 4.42807C2.40562 4.17797 2.51539 3.93811 2.71077 3.76127C2.90616 3.58442 3.17115 3.48507 3.44747 3.48507ZM21.1588 7.4815L12.899 14.1768L4.48931 7.46076L4.48931 18.5731H21.1588V7.4815ZM5.02169 5.37107L12.8876 11.6533L20.6399 5.37107L5.02169 5.37107Z" fill="white"/>
</g>
<defs>
<clipPath id="clip0_6_32">
<rect width="25.0042" height="22.632" fill="white" transform="translate(0.322266 0.656075)"/>
</clipPath>
</defs>
</svg>
